<svg width="121" height="38" viewBox="0 0 121 38" fill="none" xmlns="http://www.w3.org/2000/svg">
<path d="M22.656 27L19.104 19.544H7.808L4.288 27H1.44L12.224 4.6H14.72L25.44 27H22.656ZM8.992 17.048H17.92L13.408 7.704L8.992 17.048ZM35.995 17V18.6H29.875V27H28.275V17H29.875V18.54C29.875 18.1133 30.0217 17.7533 30.315 17.46C30.6217 17.1533 30.9883 17 31.415 17H35.995ZM39.5211 24.28C39.5211 24.5867 39.6211 24.8533 39.8211 25.08C40.0344 25.2933 40.2944 25.4 40.6011 25.4H47.9211V27H40.5411C40.1811 27 39.8411 26.9333 39.5211 26.8C39.2011 26.6533 38.9211 26.4667 38.6811 26.24C38.4411 26 38.2544 25.72 38.1211 25.4C37.9878 25.08 37.9211 24.74 37.9211 24.38V19.62C37.9211 19.26 37.9878 18.92 38.1211 18.6C38.2544 18.28 38.4411 18 38.6811 17.76C38.9211 17.52 39.2011 17.3333 39.5211 17.2C39.8411 17.0667 40.1811 17 40.5411 17H47.9211V18.6H40.6011C40.2944 18.6 40.0344 18.7067 39.8211 18.92C39.6211 19.1333 39.5211 19.3933 39.5211 19.7V24.28ZM57.6686 17C58.0419 17 58.3886 17.0667 58.7086 17.2C59.0419 17.3333 59.3286 17.52 59.5686 17.76C59.8086 18 59.9953 18.28 60.1286 18.6C60.2619 18.92 60.3286 19.26 60.3286 19.62V27H58.7286V19.76C58.7286 19.44 58.6219 19.1667 58.4086 18.94C58.2086 18.7133 57.9486 18.6 57.6286 18.6H51.8086V27H50.2086V13H51.8086V17H57.6686Z" fill="white"/>
<path d="M80.0291 10.2V12.12H65.2211V17.688H80.0291V19.56H65.2211V25.08H80.0291V27H63.3011V10.2H80.0291ZM100.106 10.2L92.0417 27H90.1937L82.1777 10.2H84.2417L91.1297 24.648L97.9937 10.2H100.106ZM119.592 10.2V12.12H104.784V17.688H119.592V19.56H104.784V25.08H119.592V27H102.864V10.2H119.592Z" fill="#A238FF"/>
<line x1="-4.37114e-08" y1="31.5" x2="121" y2="31.5" stroke="#53396F"/>
<line x1="26" y1="6.5" x2="121" y2="6.49999" stroke="#53396F"/>
</svg>
